<?xml version="1.0" encoding="UTF-8" standalone="no"?>
<!-- Created with Inkscape (http://www.inkscape.org/) -->

<svg
   xmlns:dc="http://purl.org/dc/elements/1.1/"
   xmlns:cc="http://creativecommons.org/ns#"
   xmlns:rdf="http://www.w3.org/1999/02/22-rdf-syntax-ns#"
   xmlns:svg="http://www.w3.org/2000/svg"
   xmlns="http://www.w3.org/2000/svg"
   xmlns:sodipodi="http://sodipodi.sourceforge.net/DTD/sodipodi-0.dtd"
   xmlns:inkscape="http://www.inkscape.org/namespaces/inkscape"
   version="1.1"
   id="svg3711"
   xml:space="preserve"
   width="800"
   height="800"
   viewBox="0 0 800 800"
   sodipodi:docname="rocket-launch-svg.svg"
   inkscape:version="0.92.4 (5da689c313, 2019-01-14)"><metadata
     id="metadata3717"><rdf:RDF><cc:Work
         rdf:about=""><dc:format>image/svg+xml</dc:format><dc:type
           rdf:resource="http://purl.org/dc/dcmitype/StillImage" /><dc:title></dc:title></cc:Work></rdf:RDF></metadata><defs
     id="defs3715"><clipPath
       clipPathUnits="userSpaceOnUse"
       id="clipPath3727"><path
         d="M 0,600 H 600 V 0 H 0 Z"
         id="path3725"
         inkscape:connector-curvature="0" /></clipPath></defs><sodipodi:namedview
     pagecolor="#ffffff"
     bordercolor="#666666"
     borderopacity="1"
     objecttolerance="10"
     gridtolerance="10"
     guidetolerance="10"
     inkscape:pageopacity="0"
     inkscape:pageshadow="2"
     inkscape:window-width="1920"
     inkscape:window-height="1018"
     id="namedview3713"
     showgrid="false"
     inkscape:zoom="0.87266551"
     inkscape:cx="522.0339"
     inkscape:cy="405.08475"
     inkscape:window-x="-8"
     inkscape:window-y="-8"
     inkscape:window-maximized="1"
     inkscape:current-layer="g3719" /><g
     id="g3719"
     inkscape:groupmode="layer"
     inkscape:label="rocket-launch-publicdomainvectors.org"
     transform="matrix(1.3333333,0,0,-1.3333333,0,800)"><g
       id="g3721"><g
         id="g3723"
         clip-path="url(#clipPath3727)"><path
           d="M 600,0 H 0 v 600 h 600 z"
           style="fill:#193441;fill-opacity:1;fill-rule:nonzero;stroke:none"
           id="path3729"
           inkscape:connector-curvature="0" /><path
           d="M 351.605,137.885 H 268.151 L 286.579,300 h 46.598 z"
           style="fill:#3498db;fill-opacity:1;fill-rule:nonzero;stroke:none"
           id="path3731"
           inkscape:connector-curvature="0" /><path
           d="M 600,292.31 V 61.95 c -1.32,-0.09 -2.66,-0.13 -4,-0.13 -5.17,0 -10.2,0.64 -15,1.83 V 14 H 0 v 268.54 c 6.68,9.73 16.98,15.96 28.54,15.96 20.2,0 36.58,-19.03 36.58,-42.5 0,-0.76 -0.02,-1.51 -0.06,-2.26 7.46,9.96 18.43,16.26 30.68,16.26 4.92,0 9.63,-1.01 13.99,-2.87 4.82,11.46 14.95,19.35 26.67,19.35 15.11,0 27.57,-13.12 29.42,-30.09 7.31,4.53 15.64,7.11 24.5,7.11 28.75,0 52.06,-27.09 52.06,-60.5 0,-0.93 -0.02,-1.84 -0.06,-2.76 4.03,1.78 8.4,2.76 12.97,2.76 14.02,0 26.18,-9.18 32.32,-22.63 0.47,-0.49 0.92,-0.99 1.37,-1.49 6.05,11.77 17.1,19.67 29.75,19.67 3.48,0 6.84,-0.61 10.01,-1.72 1.24,0.11 2.49,0.17 3.76,0.17 5.31,0 10.38,-0.98 15.07,-2.76 -0.04,0.92 -0.07,1.83 -0.07,2.76 0,33.41 27.09,60.5 60.5,60.5 6.79,0 13.32,-1.13 19.42,-3.2 -2.78,3.95 -4.42,8.76 -4.42,13.95 0,13.39 10.86,24.25 24.25,24.25 8.97,0 16.79,-4.87 20.99,-12.11 0.8,0.05 1.61,0.09 2.42,0.09 6.33,0 12.25,-1.72 17.35,-4.7 -0.01,0.08 -0.01,0.15 -0.01,0.22 0,17.67 14.33,32 32,32 9.36,0 17.77,-4.02 23.62,-10.42 3.48,1.55 7.33,2.42 11.38,2.42 9.35,0 17.62,-4.59 22.71,-11.63 5.54,2.65 11.74,4.13 18.29,4.13 1.35,0 2.68,-0.06 4,-0.19"
           style="fill:#3498db;fill-opacity:1;fill-rule:nonzero;stroke:none"
           id="path3733"
           inkscape:connector-curvature="0" /><path
           d="M 600,275.77 V 0 H 0 v 257.68 c 15.44,-7.98 26,-24.1 26,-42.68 0,-2.94 -0.28,-5.82 -0.79,-8.62 3.08,-2.61 5.71,-5.73 7.78,-9.22 4.74,2.61 10.19,4.1 15.98,4.1 17.08,0 31.15,-12.92 32.97,-29.52 6.81,-0.41 13.13,-2.66 18.45,-6.27 4.34,15.31 18.41,26.53 35.11,26.53 1.92,0 3.8,-0.15 5.64,-0.43 3.61,10.93 13.91,18.82 26.06,18.82 10.23,0 19.15,-5.6 23.87,-13.9 2.38,0.4 4.83,0.62 7.33,0.62 23.04,0 41.91,-17.86 43.52,-40.5 6.67,13.02 20.22,21.94 35.85,21.94 15.03,0 28.13,-8.24 35.05,-20.44 6.69,14.68 21.49,24.89 38.68,24.89 5.31,0 10.38,-0.98 15.07,-2.76 -0.04,0.92 -0.07,1.83 -0.07,2.76 0,33.41 27.09,60.5 60.5,60.5 10.29,0 19.98,-2.58 28.47,-7.11 2.16,16.97 16.64,30.09 34.19,30.09 13.62,0 25.39,-7.89 30.99,-19.35 5.07,1.86 10.55,2.87 16.26,2.87 14.24,0 26.99,-6.3 35.65,-16.26 -0.04,0.75 -0.06,1.5 -0.06,2.26 0,18.19 11.43,33.71 27.5,39.77"
           style="fill:#ffffff;fill-opacity:1;fill-rule:nonzero;stroke:none"
           id="path3735"
           inkscape:connector-curvature="0" /><path
           d="M 145.616,458.389 H 59.428 v 34.702 h 86.188 z"
           style="fill:#ffffff;fill-opacity:1;fill-rule:nonzero;stroke:none"
           id="path3737"
           inkscape:connector-curvature="0" /><path
           d="m 89.89,487.307 c 0,-15.971 -12.947,-28.918 -28.918,-28.918 -15.972,0 -28.918,12.947 -28.918,28.918 0,15.971 12.946,28.918 28.918,28.918 15.971,0 28.918,-12.947 28.918,-28.918"
           style="fill:#ffffff;fill-opacity:1;fill-rule:nonzero;stroke:none"
           id="path3739"
           inkscape:connector-curvature="0" /><path
           d="m 138.573,508.205 c 0,-17.93 -14.535,-32.465 -32.465,-32.465 -17.93,0 -32.465,14.535 -32.465,32.465 0,17.93 14.535,32.466 32.465,32.466 17.93,0 32.465,-14.536 32.465,-32.466"
           style="fill:#ffffff;fill-opacity:1;fill-rule:nonzero;stroke:none"
           id="path3741"
           inkscape:connector-curvature="0" /><path
           d="m 171,485.219 c 0,-14.818 -12.012,-26.83 -26.83,-26.83 -14.817,0 -26.829,12.012 -26.829,26.83 0,14.817 12.012,26.829 26.829,26.829 14.818,0 26.83,-12.012 26.83,-26.829"
           style="fill:#ffffff;fill-opacity:1;fill-rule:nonzero;stroke:none"
           id="path3743"
           inkscape:connector-curvature="0" /><path
           d="m 514.148,458.389 h -86.189 v 34.702 h 86.189 z"
           style="fill:#ffffff;fill-opacity:1;fill-rule:nonzero;stroke:none"
           id="path3745"
           inkscape:connector-curvature="0" /><path
           d="m 458.422,487.307 c 0,-15.971 -12.947,-28.918 -28.919,-28.918 -15.971,0 -28.918,12.947 -28.918,28.918 0,15.971 12.947,28.918 28.918,28.918 15.972,0 28.919,-12.947 28.919,-28.918"
           style="fill:#ffffff;fill-opacity:1;fill-rule:nonzero;stroke:none"
           id="path3747"
           inkscape:connector-curvature="0" /><path
           d="m 485.849,516.109 c 0,-17.06 -13.83,-30.89 -30.891,-30.89 -17.061,0 -30.891,13.83 -30.891,30.89 0,17.061 13.83,30.891 30.891,30.891 17.061,0 30.891,-13.83 30.891,-30.891"
           style="fill:#ffffff;fill-opacity:1;fill-rule:nonzero;stroke:none"
           id="path3749"
           inkscape:connector-curvature="0" /><path
           d="m 526,508.02 c 0,-17.828 -14.452,-32.28 -32.28,-32.28 -17.827,0 -32.28,14.452 -32.28,32.28 0,17.828 14.453,32.28 32.28,32.28 17.828,0 32.28,-14.452 32.28,-32.28"
           style="fill:#ffffff;fill-opacity:1;fill-rule:nonzero;stroke:none"
           id="path3751"
           inkscape:connector-curvature="0" /><path
           d="m 539.531,485.219 c 0,-14.818 -12.011,-26.83 -26.829,-26.83 -14.817,0 -26.829,12.012 -26.829,26.83 0,14.817 12.012,26.829 26.829,26.829 14.818,0 26.829,-12.012 26.829,-26.829"
           style="fill:#ffffff;fill-opacity:1;fill-rule:nonzero;stroke:none"
           id="path3753"
           inkscape:connector-curvature="0" /><path
           d="M 338.698,137.885 H 281.059 L 293.787,300 h 32.183 z"
           style="fill:#ffffff;fill-opacity:1;fill-rule:nonzero;stroke:none"
           id="path3755"
           inkscape:connector-curvature="0" /><path
           d="m 297.8,294.78 h -0.001 c -1.258,5.564 -2.088,11.632 -2.088,17.995 0,5.291 0.254,10.381 0.727,15.14 0.339,3.422 0.789,6.678 1.34,9.711 1.438,7.957 3.546,14.415 6.063,18.52 -6.493,-4.004 -11.978,-13.979 -15.352,-27.328 -0.963,-3.789 -1.748,-7.857 -2.341,-12.131 -0.827,-5.945 -1.27,-12.303 -1.27,-18.912 0,-7.949 1.449,-15.528 3.647,-22.478 h 0.003 c 7.009,-22.166 21.684,-37.821 21.684,-37.821 v 27.026 c 0,0 -8.399,12.533 -12.412,30.278"
           style="fill:#db9e36;fill-opacity:1;fill-rule:nonzero;stroke:none"
           id="path3757"
           inkscape:connector-curvature="0" /><path
           d="m 334.274,316.687 c -0.591,4.274 -1.377,8.342 -2.34,12.131 -3.373,13.349 -8.858,23.324 -15.352,27.328 2.517,-4.105 4.625,-10.563 6.063,-18.52 0.551,-3.033 1.001,-6.289 1.339,-9.711 0.474,-4.759 0.728,-9.849 0.728,-15.14 0,-6.363 -0.829,-12.431 -2.088,-17.995 h -0.001 c -4.012,-17.745 -12.411,-30.278 -12.411,-30.278 v -27.026 c 0,0 14.675,15.655 21.684,37.821 h 0.002 c 2.198,6.95 3.647,14.529 3.647,22.478 0,6.609 -0.442,12.967 -1.271,18.912"
           style="fill:#b3812c;fill-opacity:1;fill-rule:nonzero;stroke:none"
           id="path3759"
           inkscape:connector-curvature="0" /><path
           d="m 310.212,361.049 c -2.286,0 -4.447,-1.766 -6.371,-4.903 2.036,1.255 4.17,1.93 6.371,1.93 z"
           style="fill:#ffd34e;fill-opacity:1;fill-rule:nonzero;stroke:none"
           id="path3761"
           inkscape:connector-curvature="0" /><path
           d="m 316.582,356.146 c -1.924,3.137 -4.085,4.903 -6.37,4.903 v -2.973 c 2.2,0 4.334,-0.675 6.37,-1.93"
           style="fill:#ffd34e;fill-opacity:1;fill-rule:nonzero;stroke:none"
           id="path3763"
           inkscape:connector-curvature="0" /><path
           d="m 310.212,264.502 c 0,0 8.399,12.533 12.411,30.278 h 0.001 c 1.259,5.564 2.088,11.632 2.088,17.995 0,5.291 -0.254,10.381 -0.728,15.14 -0.338,3.422 -0.788,6.678 -1.339,9.711 -1.438,7.957 -3.546,14.415 -6.063,18.52 -2.036,1.255 -4.17,1.93 -6.37,1.93 z"
           style="fill:#edc449;fill-opacity:1;fill-rule:nonzero;stroke:none"
           id="path3765"
           inkscape:connector-curvature="0" /><path
           d="m 296.438,327.915 c -0.473,-4.759 -0.727,-9.849 -0.727,-15.14 0,-6.363 0.83,-12.431 2.088,-17.995 h 0.001 c 4.013,-17.745 12.412,-30.278 12.412,-30.278 v 93.574 c -2.201,0 -4.335,-0.675 -6.371,-1.93 -2.517,-4.105 -4.625,-10.563 -6.063,-18.52 -0.551,-3.033 -1.001,-6.289 -1.34,-9.711"
           style="fill:#ffd34e;fill-opacity:1;fill-rule:nonzero;stroke:none"
           id="path3767"
           inkscape:connector-curvature="0" /><path
           d="m 310.212,506.225 c 0,0 -20.565,-21.939 -30.386,-53 h 30.386 z"
           style="fill:#b9121b;fill-opacity:1;fill-rule:nonzero;stroke:none"
           id="path3769"
           inkscape:connector-curvature="0" /><path
           d="m 340.598,453.225 c -9.823,31.061 -30.386,53 -30.386,53 v -53 z"
           style="fill:#a31018;fill-opacity:1;fill-rule:nonzero;stroke:none"
           id="path3771"
           inkscape:connector-curvature="0" /><path
           d="m 340.602,453.225 h -0.004 -30.386 v -116 c 12.92,0 24.229,16.43 30.439,41 1.351,5.31 2.451,11.01 3.281,17 1.16,8.33 1.78,17.24 1.78,26.5 0,11.14 -2.03,21.76 -5.11,31.5"
           style="fill:#2f8ac7;fill-opacity:1;fill-rule:nonzero;stroke:none"
           id="path3773"
           inkscape:connector-curvature="0" /><path
           d="m 279.826,453.225 h -0.004 c -3.08,-9.74 -5.111,-20.36 -5.111,-31.5 0,-9.26 0.621,-18.17 1.781,-26.5 0.83,-5.99 1.929,-11.69 3.279,-17 6.21,-24.57 17.521,-41 30.441,-41 v 116 z"
           style="fill:#3498db;fill-opacity:1;fill-rule:nonzero;stroke:none"
           id="path3775"
           inkscape:connector-curvature="0" /><path
           d="m 279.826,371.559 -17.781,-18.667 v -48.667 l 29.666,45.373 v 24.627 z"
           style="fill:#b9121b;fill-opacity:1;fill-rule:nonzero;stroke:none"
           id="path3777"
           inkscape:connector-curvature="0" /><path
           d="m 340.598,371.559 17.78,-18.667 v -48.667 l -29.666,45.373 v 24.627 z"
           style="fill:#a31018;fill-opacity:1;fill-rule:nonzero;stroke:none"
           id="path3779"
           inkscape:connector-curvature="0" /><path
           d="m 287.045,423.725 c 0,-12.794 10.372,-23.166 23.167,-23.166 v 46.333 c -12.795,0 -23.167,-10.372 -23.167,-23.167"
           style="fill:#b9121b;fill-opacity:1;fill-rule:nonzero;stroke:none"
           id="path3781"
           inkscape:connector-curvature="0" /><path
           d="m 310.212,446.892 v -46.333 c 12.794,0 23.166,10.372 23.166,23.166 0,12.795 -10.372,23.167 -23.166,23.167"
           style="fill:#a31018;fill-opacity:1;fill-rule:nonzero;stroke:none"
           id="path3783"
           inkscape:connector-curvature="0" /><path
           d="m 291.711,423.725 c 0,-10.217 8.283,-18.5 18.501,-18.5 v 37 c -10.218,0 -18.501,-8.283 -18.501,-18.5"
           style="fill:#ffd34e;fill-opacity:1;fill-rule:nonzero;stroke:none"
           id="path3785"
           inkscape:connector-curvature="0" /><path
           d="m 310.212,442.225 v -37 c 10.217,0 18.5,8.283 18.5,18.5 0,10.217 -8.283,18.5 -18.5,18.5"
           style="fill:#ffd34e;fill-opacity:1;fill-rule:nonzero;stroke:none"
           id="path3787"
           inkscape:connector-curvature="0" /><path
           d="m 276.492,395.225 3.279,-17 h 30.441 v 17 z"
           style="fill:#b9121b;fill-opacity:1;fill-rule:nonzero;stroke:none"
           id="path3789"
           inkscape:connector-curvature="0" /><path
           d="m 343.932,395.225 h -33.72 v -17 h 30.439 c 1.351,5.31 2.451,11.01 3.281,17"
           style="fill:#a31018;fill-opacity:1;fill-rule:nonzero;stroke:none"
           id="path3791"
           inkscape:connector-curvature="0" /><path
           d="m 310.212,300.225 h 3.115 l 5.385,43.5 h -8.5 z"
           style="fill:#a31018;fill-opacity:1;fill-rule:nonzero;stroke:none"
           id="path3793"
           inkscape:connector-curvature="0" /><path
           d="m 301.712,343.725 5.384,-43.5 h 3.116 v 43.5 z"
           style="fill:#b9121b;fill-opacity:1;fill-rule:nonzero;stroke:none"
           id="path3795"
           inkscape:connector-curvature="0" /><path
           d="m 318.712,343.725 -4.491,21 h -4.009 v -21 z"
           style="fill:#a31018;fill-opacity:1;fill-rule:nonzero;stroke:none"
           id="path3797"
           inkscape:connector-curvature="0" /><path
           d="m 301.712,343.725 h 8.5 v 21 h -4.01 z"
           style="fill:#b9121b;fill-opacity:1;fill-rule:nonzero;stroke:none"
           id="path3799"
           inkscape:connector-curvature="0" /></g></g></g></svg>