<?xml version="1.0" encoding="UTF-8" standalone="no"?>
<svg
   xmlns:dc="http://purl.org/dc/elements/1.1/"
   xmlns:cc="http://creativecommons.org/ns#"
   xmlns:rdf="http://www.w3.org/1999/02/22-rdf-syntax-ns#"
   xmlns:svg="http://www.w3.org/2000/svg"
   xmlns="http://www.w3.org/2000/svg"
   xmlns:sodipodi="http://sodipodi.sourceforge.net/DTD/sodipodi-0.dtd"
   xmlns:inkscape="http://www.inkscape.org/namespaces/inkscape"
   version="1.1"
   id="svg2"
   xml:space="preserve"
   width="1133.8533"
   height="1133.8533"
   viewBox="0 0 1133.8533 1133.8533"
   sodipodi:docname="vectorstock_32059244.eps"><metadata
     id="metadata8"><rdf:RDF><cc:Work
         rdf:about=""><dc:format>image/svg+xml</dc:format><dc:type
           rdf:resource="http://purl.org/dc/dcmitype/StillImage" /></cc:Work></rdf:RDF></metadata><defs
     id="defs6" /><sodipodi:namedview
     pagecolor="#ffffff"
     bordercolor="#666666"
     borderopacity="1"
     objecttolerance="10"
     gridtolerance="10"
     guidetolerance="10"
     inkscape:pageopacity="0"
     inkscape:pageshadow="2"
     inkscape:window-width="640"
     inkscape:window-height="480"
     id="namedview4" /><g
     id="g10"
     inkscape:groupmode="layer"
     inkscape:label="ink_ext_XXXXXX"
     transform="matrix(1.3333333,0,0,-1.3333333,0,1133.8533)"><g
       id="g12"
       transform="scale(0.1)"><path
         d="M 8503.94,0 H 0 V 8503.94 H 8503.94 V 0"
         style="fill:#f19314;fill-opacity:1;fill-rule:evenodd;stroke:none"
         id="path14" /><path
         d="m 2513.6,7795.28 h 3476.74 c 993.35,0 1804.94,-809.48 1804.94,-1798.6 V 2507.27 c 0,-989.13 -811.59,-1798.598 -1804.94,-1798.598 H 2513.6 c -993.35,0 -1804.936,809.468 -1804.936,1798.598 v 3489.41 c 0,989.12 811.586,1798.6 1804.936,1798.6 v 0"
         style="fill:#ebc10d;fill-opacity:1;fill-rule:evenodd;stroke:none"
         id="path16" /><path
         d="M 4424.22,708.672 2703.82,2429.07 5785.33,6089.67 7795.28,4079.72 V 2507.27 c 0,-989.13 -811.59,-1798.598 -1804.94,-1798.598 H 4424.22"
         style="fill:#f19314;fill-opacity:1;fill-rule:evenodd;stroke:none"
         id="path18" /><path
         d="M 3618.97,6224.94 H 5436.6 c 211.35,0 395.22,-128.93 477.64,-310.69 L 3094.82,3094.82 v 2605.97 c 0,287.43 236.71,524.15 524.15,524.15 v 0"
         style="fill:#33455a;fill-opacity:1;fill-rule:evenodd;stroke:none"
         id="path20" /><path
         d="m 5914.24,5914.25 c 29.59,-65.52 44.39,-137.38 44.39,-213.46 V 2803.16 c 0,-287.44 -234.6,-524.15 -522.03,-524.15 H 3618.97 c -287.44,0 -524.15,236.71 -524.15,524.15 v 291.66 l 2819.42,2819.43"
         style="fill:#2c394a;fill-opacity:1;fill-rule:evenodd;stroke:none"
         id="path22" /><path
         d="m 3477.36,6224.94 h 1817.63 c 251.51,0 462.86,-179.65 513.58,-416.37 L 2955.33,2955.33 v 2745.46 c 0,287.43 234.6,524.15 522.03,524.15 v 0"
         style="fill:#eef4f3;fill-opacity:1;fill-rule:evenodd;stroke:none"
         id="path24" /><path
         d="m 5808.57,5808.57 c 6.34,-35.92 10.57,-71.86 10.57,-107.78 V 2803.16 c 0,-287.44 -236.71,-524.15 -524.15,-524.15 H 3477.36 c -287.43,0 -522.03,236.71 -522.03,524.15 v 152.17 l 2853.24,2853.24"
         style="fill:#dce4e5;fill-opacity:1;fill-rule:evenodd;stroke:none"
         id="path26" /><path
         d="m 3069.46,6224.94 h 1815.51 c 289.55,0 524.15,-236.72 524.15,-524.15 V 5409.12 L 2589.69,2589.69 c -27.48,65.52 -44.39,137.38 -44.39,213.47 v 2897.63 c 0,287.43 234.61,524.15 524.16,524.15 v 0"
         style="fill:#33455a;fill-opacity:1;fill-rule:evenodd;stroke:none"
         id="path28" /><path
         d="M 5409.12,5409.12 V 2803.16 c 0,-287.44 -234.6,-524.15 -524.15,-524.15 H 3069.46 c -213.47,0 -397.34,128.92 -479.77,310.68 l 2819.43,2819.43"
         style="fill:#2c394a;fill-opacity:1;fill-rule:evenodd;stroke:none"
         id="path30" /><path
         d="m 3618.97,6224.94 h 448.07 V 5102.66 l -215.58,283.21 -232.49,-283.21 v 1122.28"
         style="fill:#9dddca;fill-opacity:1;fill-rule:evenodd;stroke:none"
         id="path32" /><path
         d="m 3219.52,6224.94 h 112.01 V 3333.65 l -112.01,-114.13 v 3005.42"
         style="fill:#d33c53;fill-opacity:1;fill-rule:evenodd;stroke:none"
         id="path34" /><path
         d="M 3331.53,3333.65 V 2279.01 h -112.01 v 940.51 l 112.01,114.13"
         style="fill:#c62f3b;fill-opacity:1;fill-rule:evenodd;stroke:none"
         id="path36" /></g></g></svg>
